<svg xmlns="http://www.w3.org/2000/svg" viewBox="0 0 48 48">
    <path d="M42 39V9c0-1.65625-1.34375-3-3-3H9C7.34375 6 6 7.34375 6 9v30c0 1.65625 1.34375 3 3 3h30c1.65625 0 3-1.34375 3-3z" fill="#1c9957"/>
    <path d="M9 42h30c1.65625 0-15-16-15-16S7.34375 42 9 42z" fill="#3e7bf1"/>
    <path d="M42 39V9c0-1.65625-16 15-16 15s16 16.65625 16 15z" fill="#cbccc9"/>
    <path d="M39 42c1.65625 0 3-1.34375 3-3v-.246094L26.246094 23 23 26.246094 38.753906 42z" fill="#efefef"/>
    <path d="M42 9c0-1.65625-1.34375-3-3-3h-.246094L6 38.753906V39c0 1.65625 1.34375 3 3 3h.246094L42 9.246094z" fill="#ffd73d"/>
    <path d="M36 2c-5.523437 0-10 4.476563-10 10 0 6.8125 7.664063 9.296875 9.332031 19.851563C35.441406 32.53125 35.449219 33 36 33c.550781 0 .558594-.46875.667969-1.148437C38.335938 21.296875 46 18.8125 46 12c0-5.523437-4.476562-10-10-10z" fill="#d73f35"/>
    <path d="M39.5 12c0 1.933594-1.566406 3.5-3.5 3.5s-3.5-1.566406-3.5-3.5 1.566406-3.5 3.5-3.5 3.5 1.566406 3.5 3.5z" fill="#752622"/>
    <path d="M14.492188 12.53125v2.101563h2.996093c-.394531 1.273437-1.457031 2.183593-2.996093 2.183593-1.832032 0-3.316407-1.484375-3.316407-3.316406 0-1.835937 1.484375-3.320312 3.316407-3.320312.824218 0 1.578125.304687 2.15625.800781l1.546875-1.546875C17.21875 8.542969 15.921875 8 14.492188 8c-3.039063 0-5.5 2.464844-5.5 5.5s2.460937 5.5 5.5 5.5c4.8125 0 5.636718-4.316406 5.183593-6.460937z" fill="#fff"/>
</svg>